<svg width="47" height="7" viewBox="0 0 47 7" fill="none" xmlns="http://www.w3.org/2000/svg">
<path d="M1.80855 6.084C1.44855 6.084 1.19655 5.976 1.05255 5.76C0.911214 5.544 0.840547 5.17867 0.840547 4.664V3.304H0.564547V2.748L1.03655 2.6L1.44455 1.668H2.14855V2.6H2.80455V3.304H2.13655V4.792C2.13655 5.00533 2.16721 5.14667 2.22855 5.216C2.28988 5.28533 2.38455 5.32 2.51255 5.32C2.56855 5.32 2.61921 5.31333 2.66455 5.3C2.70988 5.28667 2.74721 5.268 2.77655 5.244V5.788C2.73655 5.828 2.68455 5.868 2.62055 5.908C2.55655 5.94533 2.44988 5.984 2.30055 6.024C2.15388 6.064 1.98988 6.084 1.80855 6.084ZM4.9537 3.932C4.9537 3.59333 4.93637 3.35333 4.9017 3.212C4.86704 3.07067 4.80304 3 4.7097 3C4.6297 3 4.56437 3.01467 4.5137 3.044C4.46304 3.07067 4.4257 3.11467 4.4017 3.176C4.3777 3.23467 4.3617 3.296 4.3537 3.36C4.34837 3.42133 4.3457 3.5 4.3457 3.596V3.932H4.9537ZM4.6337 6.084C4.33504 6.084 4.07504 6.03867 3.8537 5.948C3.63504 5.85733 3.4617 5.73067 3.3337 5.568C3.20837 5.40533 3.11637 5.22267 3.0577 5.02C2.99904 4.81467 2.9697 4.58667 2.9697 4.336C2.9697 3.73867 3.1217 3.28667 3.4257 2.98C3.7297 2.67333 4.15504 2.52 4.7017 2.52C5.22704 2.52 5.60304 2.644 5.8297 2.892C6.05637 3.13733 6.1697 3.53333 6.1697 4.08V4.524H4.3417V4.6C4.3417 4.75733 4.3577 4.88667 4.3897 4.988C4.42437 5.08933 4.4737 5.164 4.5377 5.212C4.6017 5.26 4.66704 5.292 4.7337 5.308C4.80037 5.324 4.8817 5.332 4.9777 5.332C5.07104 5.332 5.17104 5.32 5.2777 5.296C5.38704 5.272 5.49637 5.23467 5.6057 5.184C5.7177 5.13333 5.81104 5.07333 5.8857 5.004L6.1217 5.408C6.02304 5.568 5.8777 5.70267 5.6857 5.812C5.49637 5.91867 5.3137 5.99067 5.1377 6.028C4.9617 6.06533 4.7937 6.084 4.6337 6.084ZM7.65502 6.084C7.40435 6.084 7.15102 6.04267 6.89502 5.96C6.63902 5.87467 6.47502 5.792 6.40302 5.712L6.50702 5.068C6.59768 5.156 6.74835 5.232 6.95902 5.296C7.17235 5.36 7.38968 5.392 7.61102 5.392C7.77102 5.392 7.88035 5.372 7.93902 5.332C8.00035 5.292 8.03102 5.236 8.03102 5.164C8.03102 5.09467 7.97768 5.03333 7.87102 4.98C7.76435 4.924 7.59102 4.86 7.35102 4.788C6.72968 4.60133 6.41902 4.21467 6.41902 3.628C6.41902 3.388 6.48835 3.18267 6.62702 3.012C6.76568 2.83867 6.94302 2.71333 7.15902 2.636C7.37502 2.55867 7.61635 2.52 7.88302 2.52C8.33902 2.52 8.67502 2.604 8.89102 2.772C8.93902 2.81733 8.96302 2.84 8.96302 2.84L8.78702 3.412C8.61102 3.23867 8.36835 3.152 8.05902 3.152C7.80568 3.152 7.67902 3.22667 7.67902 3.376C7.67902 3.41867 7.68835 3.45467 7.70702 3.484C7.72568 3.51067 7.75635 3.53467 7.79902 3.556C7.84435 3.57467 7.88835 3.59067 7.93102 3.604C7.97368 3.61467 8.03368 3.63067 8.11102 3.652C8.18835 3.67067 8.25502 3.688 8.31102 3.704C8.62302 3.808 8.84968 3.95467 8.99102 4.144C9.13235 4.33333 9.20302 4.56933 9.20302 4.852C9.20302 5.67333 8.68702 6.084 7.65502 6.084ZM10.4804 6.084C10.1204 6.084 9.86842 5.976 9.72442 5.76C9.58309 5.544 9.51242 5.17867 9.51242 4.664V3.304H9.23642V2.748L9.70842 2.6L10.1164 1.668H10.8204V2.6H11.4764V3.304H10.8084V4.792C10.8084 5.00533 10.8391 5.14667 10.9004 5.216C10.9618 5.28533 11.0564 5.32 11.1844 5.32C11.2404 5.32 11.2911 5.31333 11.3364 5.3C11.3818 5.28667 11.4191 5.268 11.4484 5.244V5.788C11.4084 5.828 11.3564 5.868 11.2924 5.908C11.2284 5.94533 11.1218 5.984 10.9724 6.024C10.8258 6.064 10.6618 6.084 10.4804 6.084ZM13.5576 5.644L13.5176 5.688C13.4909 5.72 13.4496 5.75733 13.3936 5.8C13.3402 5.84267 13.2776 5.88533 13.2056 5.928C13.1362 5.97067 13.0509 6.00667 12.9496 6.036C12.8482 6.068 12.7442 6.084 12.6376 6.084C11.9176 6.084 11.5576 5.728 11.5576 5.016C11.5576 4.87733 11.5829 4.75067 11.6336 4.636C11.6842 4.51867 11.7496 4.42 11.8296 4.34C11.9096 4.26 12.0056 4.18933 12.1176 4.128C12.2296 4.064 12.3416 4.01467 12.4536 3.98C12.5682 3.94267 12.6882 3.912 12.8136 3.888C12.9389 3.864 13.0509 3.848 13.1496 3.84C13.2482 3.832 13.3429 3.828 13.4336 3.828V3.756C13.4336 3.59333 13.3896 3.47867 13.3016 3.412C13.2162 3.34533 13.0776 3.312 12.8856 3.312C12.7202 3.312 12.5482 3.332 12.3696 3.372C12.1909 3.40933 12.0509 3.45467 11.9496 3.508L11.6936 2.964C11.8749 2.84667 12.1109 2.744 12.4016 2.656C12.6922 2.56533 12.9882 2.52 13.2896 2.52C13.5562 2.52 13.7762 2.54667 13.9496 2.6C14.1229 2.65067 14.2629 2.73867 14.3696 2.864C14.4789 2.98667 14.5562 3.144 14.6016 3.336C14.6469 3.52533 14.6696 3.76667 14.6696 4.06V5.688L14.7816 6H13.6856L13.5576 5.644ZM13.2416 5.38C13.2762 5.38 13.3082 5.37333 13.3376 5.36C13.3696 5.344 13.3936 5.32933 13.4096 5.316C13.4256 5.3 13.4336 5.292 13.4336 5.292V4.332C13.2709 4.332 13.1416 4.37733 13.0456 4.468C12.9496 4.556 12.9016 4.69333 12.9016 4.88C12.9016 5.21333 13.0149 5.38 13.2416 5.38ZM16.4731 6H15.1811V3.412L14.9411 3.264V2.836L15.8011 2.6H16.4811V3.116L16.5291 3.056C16.5611 3.01333 16.6078 2.96267 16.6691 2.904C16.7331 2.84533 16.8038 2.788 16.8811 2.732C16.9585 2.67333 17.0505 2.624 17.1571 2.584C17.2665 2.54133 17.3731 2.52 17.4771 2.52C17.8425 2.52 18.0998 2.62 18.2491 2.82C18.4011 3.02 18.4771 3.35467 18.4771 3.824C18.4771 3.84 18.4771 3.864 18.4771 3.896C18.4745 3.928 18.4731 3.95333 18.4731 3.972V6H17.1531V3.856C17.1611 3.60533 17.0545 3.48 16.8331 3.48C16.8171 3.48 16.8011 3.48133 16.7851 3.484C16.7718 3.48667 16.7585 3.48933 16.7451 3.492C16.7345 3.49467 16.7211 3.5 16.7051 3.508C16.6918 3.51333 16.6798 3.51867 16.6691 3.524C16.6585 3.52667 16.6465 3.53333 16.6331 3.544C16.6198 3.552 16.6091 3.55867 16.6011 3.564C16.5931 3.56933 16.5811 3.57867 16.5651 3.592C16.5518 3.60267 16.5411 3.61067 16.5331 3.616C16.5278 3.62133 16.5171 3.63067 16.5011 3.644C16.4878 3.65467 16.4785 3.66267 16.4731 3.668V6ZM21.214 6L21.058 5.484C21.0367 5.52133 21.0113 5.55867 20.982 5.596C20.9553 5.63333 20.9113 5.68133 20.85 5.74C20.7887 5.796 20.7233 5.84533 20.654 5.888C20.5847 5.93067 20.498 5.968 20.394 6C20.29 6.032 20.1807 6.048 20.066 6.048C19.626 6.048 19.3033 5.89733 19.098 5.596C18.8927 5.29467 18.79 4.876 18.79 4.34C18.79 4.004 18.838 3.70533 18.934 3.444C19.03 3.18 19.1807 2.968 19.386 2.808C19.5913 2.648 19.8393 2.568 20.13 2.568C20.3033 2.568 20.458 2.58667 20.594 2.624C20.73 2.66133 20.8473 2.70667 20.946 2.76V1.548L20.506 1.4V0.96L21.922 0.76H22.234V6H21.214ZM20.65 5.264C20.698 5.264 20.7473 5.256 20.798 5.24C20.8487 5.22133 20.898 5.196 20.946 5.164V3.152C20.8633 3.13333 20.7873 3.124 20.718 3.124C20.3633 3.12667 20.1847 3.4 20.182 3.944V4.504C20.182 4.75467 20.226 4.944 20.314 5.072C20.402 5.2 20.514 5.264 20.65 5.264ZM23.7109 6.084C23.3509 6.084 23.0989 5.976 22.9549 5.76C22.8136 5.544 22.7429 5.17867 22.7429 4.664V3.304H22.4669V2.748L22.9389 2.6L23.3469 1.668H24.0509V2.6H24.7069V3.304H24.0389V4.792C24.0389 5.00533 24.0696 5.14667 24.1309 5.216C24.1922 5.28533 24.2869 5.32 24.4149 5.32C24.4709 5.32 24.5216 5.31333 24.5669 5.3C24.6122 5.28667 24.6496 5.268 24.6789 5.244V5.788C24.6389 5.828 24.5869 5.868 24.5229 5.908C24.4589 5.94533 24.3522 5.984 24.2029 6.024C24.0562 6.064 23.8922 6.084 23.7109 6.084ZM27.016 5.468C27 5.50533 26.9667 5.55467 26.916 5.616C26.868 5.67733 26.804 5.74533 26.724 5.82C26.644 5.892 26.5454 5.95333 26.428 6.004C26.3107 6.05733 26.192 6.084 26.072 6.084C25.696 6.084 25.4267 5.972 25.264 5.748C25.104 5.524 25.024 5.15067 25.024 4.628V3.204L24.884 3.06V2.6H26.336V4.88C26.3334 5 26.3534 5.08933 26.396 5.148C26.4387 5.204 26.516 5.232 26.628 5.232C26.644 5.232 26.6587 5.232 26.672 5.232C26.6854 5.22933 26.6987 5.22667 26.712 5.224C26.7254 5.21867 26.736 5.21467 26.744 5.212C26.7547 5.20933 26.7667 5.20533 26.78 5.2C26.7934 5.192 26.804 5.18533 26.812 5.18C26.82 5.17467 26.8307 5.168 26.844 5.16C26.8574 5.14933 26.8667 5.14133 26.872 5.136C26.88 5.13067 26.8907 5.12267 26.904 5.112C26.92 5.09867 26.932 5.08933 26.94 5.084V3.204L26.724 3.06V2.6H28.248V6H27.14L27.016 5.468ZM29.7343 6.084C29.3743 6.084 29.1223 5.976 28.9783 5.76C28.837 5.544 28.7663 5.17867 28.7663 4.664V3.304H28.4903V2.748L28.9623 2.6L29.3703 1.668H30.0743V2.6H30.7303V3.304H30.0623V4.792C30.0623 5.00533 30.093 5.14667 30.1543 5.216C30.2157 5.28533 30.3103 5.32 30.4383 5.32C30.4943 5.32 30.545 5.31333 30.5903 5.3C30.6357 5.28667 30.673 5.268 30.7023 5.244V5.788C30.6623 5.828 30.6103 5.868 30.5463 5.908C30.4823 5.94533 30.3757 5.984 30.2263 6.024C30.0797 6.064 29.9157 6.084 29.7343 6.084ZM32.6915 5.604C32.8088 5.604 32.8982 5.556 32.9595 5.46C33.0235 5.36133 33.0555 5.22667 33.0555 5.056V3.792C33.0555 3.272 32.9328 3.012 32.6875 3.012C32.5728 3.012 32.4835 3.05867 32.4195 3.152C32.3555 3.24533 32.3235 3.37733 32.3235 3.548V4.848C32.3235 5.352 32.4462 5.604 32.6915 5.604ZM32.6595 6.084C32.0488 6.084 31.6022 5.94533 31.3195 5.668C31.0368 5.39067 30.8955 4.948 30.8955 4.34C30.8955 3.73733 31.0382 3.284 31.3235 2.98C31.6088 2.67333 32.0728 2.52 32.7155 2.52C33.3422 2.52 33.7942 2.66667 34.0715 2.96C34.3515 3.25067 34.4915 3.692 34.4915 4.284C34.4915 4.89733 34.3435 5.35067 34.0475 5.644C33.7542 5.93733 33.2915 6.084 32.6595 6.084ZM36.2192 6H34.9272V3.412L34.6872 3.264V2.812L35.5472 2.6H35.8712L35.9872 3.552C36.0966 2.89867 36.4472 2.572 37.0392 2.572C37.1059 2.572 37.1752 2.584 37.2472 2.608L37.1112 4.032C37.0552 3.98133 36.9326 3.956 36.7432 3.956C36.4712 3.956 36.2966 4.028 36.2192 4.172V6ZM38.856 6H37.564V3.412L37.324 3.264V2.836L38.184 2.6H38.864V3.116C38.8773 3.09733 38.896 3.07333 38.92 3.044C38.9466 3.012 38.9946 2.96267 39.064 2.896C39.1333 2.82933 39.204 2.77067 39.276 2.72C39.3506 2.66933 39.44 2.624 39.544 2.584C39.6506 2.54133 39.756 2.52 39.86 2.52C40.1266 2.52 40.3306 2.57067 40.472 2.672C40.6133 2.77333 40.7133 2.93867 40.772 3.168C40.8626 3.01067 41.0013 2.864 41.188 2.728C41.3773 2.58933 41.5853 2.52 41.812 2.52C42.0626 2.52 42.2573 2.564 42.396 2.652C42.5373 2.73733 42.64 2.884 42.704 3.092C42.768 3.3 42.8 3.59333 42.8 3.972V6H41.5V3.856C41.5 3.73867 41.472 3.64667 41.416 3.58C41.36 3.51333 41.2746 3.48 41.16 3.48C41.0826 3.48 40.9773 3.544 40.844 3.672C40.852 3.8 40.856 3.93867 40.856 4.088V6H39.536V3.856C39.544 3.60533 39.4373 3.48 39.216 3.48C39.2 3.48 39.184 3.48133 39.168 3.484C39.1546 3.48667 39.1413 3.48933 39.128 3.492C39.1173 3.49467 39.104 3.5 39.088 3.508C39.0746 3.51333 39.0626 3.51867 39.052 3.524C39.0413 3.52667 39.0293 3.53333 39.016 3.544C39.0026 3.552 38.992 3.55867 38.984 3.564C38.976 3.56933 38.964 3.57867 38.948 3.592C38.9346 3.60267 38.924 3.61067 38.916 3.616C38.9106 3.62133 38.9 3.63067 38.884 3.644C38.8706 3.65467 38.8613 3.66267 38.856 3.668V6ZM45.1021 3.932C45.1021 3.59333 45.0848 3.35333 45.0501 3.212C45.0155 3.07067 44.9515 3 44.8581 3C44.7781 3 44.7128 3.01467 44.6621 3.044C44.6115 3.07067 44.5741 3.11467 44.5501 3.176C44.5261 3.23467 44.5101 3.296 44.5021 3.36C44.4968 3.42133 44.4941 3.5 44.4941 3.596V3.932H45.1021ZM44.7821 6.084C44.4835 6.084 44.2235 6.03867 44.0021 5.948C43.7835 5.85733 43.6101 5.73067 43.4821 5.568C43.3568 5.40533 43.2648 5.22267 43.2061 5.02C43.1475 4.81467 43.1181 4.58667 43.1181 4.336C43.1181 3.73867 43.2701 3.28667 43.5741 2.98C43.8781 2.67333 44.3035 2.52 44.8501 2.52C45.3755 2.52 45.7515 2.644 45.9781 2.892C46.2048 3.13733 46.3181 3.53333 46.3181 4.08V4.524H44.4901V4.6C44.4901 4.75733 44.5061 4.88667 44.5381 4.988C44.5728 5.08933 44.6221 5.164 44.6861 5.212C44.7501 5.26 44.8155 5.292 44.8821 5.308C44.9488 5.324 45.0301 5.332 45.1261 5.332C45.2195 5.332 45.3195 5.32 45.4261 5.296C45.5355 5.272 45.6448 5.23467 45.7541 5.184C45.8661 5.13333 45.9595 5.07333 46.0341 5.004L46.2701 5.408C46.1715 5.568 46.0261 5.70267 45.8341 5.812C45.6448 5.91867 45.4621 5.99067 45.2861 6.028C45.1101 6.06533 44.9421 6.084 44.7821 6.084Z" fill="#5B5CE9"/>
</svg>
