<svg width="12" height="12" viewBox="0 0 12 12" fill="none" xmlns="http://www.w3.org/2000/svg">
<rect width="12" height="12" rx="3" fill="white"/>
<path d="M3.34549 8.084C2.98549 8.084 2.73349 7.976 2.58949 7.76C2.44816 7.544 2.37749 7.17867 2.37749 6.664V5.304H2.10149V4.748L2.57349 4.6L2.98149 3.668H3.68549V4.6H4.34149V5.304H3.67349V6.792C3.67349 7.00533 3.70416 7.14667 3.76549 7.216C3.82683 7.28533 3.92149 7.32 4.04949 7.32C4.10549 7.32 4.15616 7.31333 4.20149 7.3C4.24683 7.28667 4.28416 7.268 4.31349 7.244V7.788C4.27349 7.828 4.22149 7.868 4.15749 7.908C4.09349 7.94533 3.98683 7.984 3.83749 8.024C3.69083 8.064 3.52683 8.084 3.34549 8.084ZM6.73465 7.892C6.56265 8.032 6.22165 8.102 5.71165 8.102C5.31165 8.102 4.99665 7.993 4.76665 7.775C4.53665 7.555 4.42165 7.281 4.42165 6.953C4.42165 6.751 4.49265 6.575 4.63465 6.425C4.77665 6.275 4.94065 6.162 5.12665 6.086C5.11465 6.06 5.08965 6.017 5.05165 5.957C5.01565 5.897 4.98165 5.841 4.94965 5.789C4.91765 5.737 4.88865 5.67 4.86265 5.588C4.83665 5.506 4.82365 5.424 4.82365 5.342C4.82365 5.036 4.91765 4.805 5.10565 4.649C5.29565 4.493 5.61265 4.415 6.05665 4.415C6.25265 4.415 6.42465 4.441 6.57265 4.493C6.72065 4.545 6.83465 4.615 6.91465 4.703C6.99465 4.789 7.05365 4.881 7.09165 4.979C7.12965 5.075 7.14865 5.177 7.14865 5.285C7.14865 5.509 7.08765 5.709 6.96565 5.885C6.84565 6.059 6.65865 6.225 6.40465 6.383C6.43465 6.437 6.48865 6.513 6.56665 6.611C6.64665 6.707 6.71965 6.782 6.78565 6.836C6.80365 6.79 6.81765 6.744 6.82765 6.698C6.83965 6.65 6.84865 6.596 6.85465 6.536C6.86265 6.476 6.85965 6.425 6.84565 6.383L7.64665 6.407C7.64665 6.563 7.62965 6.703 7.59565 6.827C7.56165 6.949 7.52765 7.038 7.49365 7.094C7.45965 7.148 7.41165 7.216 7.34965 7.298C7.49165 7.416 7.63265 7.49 7.77265 7.52L7.54165 8.045C7.48765 8.051 7.44465 8.054 7.41265 8.054C7.11865 8.054 6.89265 8 6.73465 7.892ZM5.31265 6.971C5.31265 7.153 5.36965 7.302 5.48365 7.418C5.59765 7.534 5.73065 7.592 5.88265 7.592C5.90665 7.592 5.92865 7.591 5.94865 7.589C5.96865 7.585 5.98965 7.579 6.01165 7.571C6.03365 7.561 6.05265 7.553 6.06865 7.547C6.08465 7.539 6.10865 7.527 6.14065 7.511C6.17265 7.495 6.19865 7.482 6.21865 7.472C5.89465 7.246 5.63465 6.965 5.43865 6.629C5.39065 6.657 5.35765 6.695 5.33965 6.743C5.32165 6.791 5.31265 6.867 5.31265 6.971ZM6.04165 4.835C5.89565 4.835 5.82265 4.999 5.82265 5.327C5.82265 5.531 5.89665 5.718 6.04465 5.888C6.12265 5.824 6.18065 5.756 6.21865 5.684C6.25665 5.612 6.27865 5.55 6.28465 5.498C6.29265 5.444 6.29665 5.369 6.29665 5.273C6.29665 4.981 6.21165 4.835 6.04165 4.835ZM9.03202 8.084C8.67202 8.084 8.42002 7.976 8.27602 7.76C8.13468 7.544 8.06402 7.17867 8.06402 6.664V5.304H7.78802V4.748L8.26002 4.6L8.66802 3.668H9.37202V4.6H10.028V5.304H9.36002V6.792C9.36002 7.00533 9.39068 7.14667 9.45202 7.216C9.51335 7.28533 9.60802 7.32 9.73602 7.32C9.79202 7.32 9.84268 7.31333 9.88802 7.3C9.93335 7.28667 9.97068 7.268 10 7.244V7.788C9.96002 7.828 9.90802 7.868 9.84402 7.908C9.78002 7.94533 9.67335 7.984 9.52402 8.024C9.37735 8.064 9.21335 8.084 9.03202 8.084Z" fill="#927CFF"/>
</svg>
